#!OML:ASF H:\LiuWeirdWalks\Patient Classification 1\Patient 1\Session 1\male.ASF
:FULLY-SPECIFIED
:DEGREES
252
root 0.0657906 17.762 -20.6954 4.12627 5.51267 -2.04228
lowerback 5.25971 10.2221 3.60399
upperback -0.866134 13.8219 -1.35794
thorax -2.61499 6.82821 -4.23154
lowerneck -14.1319 -10.5648 -3.46021
upperneck 14.2572 -13.5163 -0.596794
head 6.84783 -6.73927 -1.00608
rclavicle 2.53026e-013 -7.77745e-015
rhumerus -4.91776 -8.26012 -71.2652
rradius 45.1721
rwrist -20.7456
rhand -20.2447 3.77571
rfingers 7.12502
rthumb 6.10359 -26.1164
lclavicle 2.53026e-013 -7.77745e-015
lhumerus -58.5453 17.1513 50.4347
lradius 34.3374
lwrist 9.47207
lhand -14.0839 3.94238
lfingers 7.12502
lthumb 12.0482 33.5756
rfemur 11.9552 -7.83842 20.1957
rtibia 36.2193
rfoot 14.2876 -18.2433
rtoes 0.935753
lfemur -28.9658 -3.55078 -19.2314
ltibia 34.0938
lfoot -4.73937 11.1618
ltoes -6.41871
253
root 0.108009 17.7954 -20.5368 4.00689 5.06964 -1.72833
lowerback 5.1886 10.067 3.25219
upperback -0.888424 13.5912 -1.34149
thorax -2.70364 6.71521 -4.02429
lowerneck -14.2436 -10.4164 -3.08324
upperneck 14.393 -13.3567 -0.812557
head 6.86675 -6.66057 -1.1201
rclavicle 8.14551e-015 4.47266e-016
rhumerus -5.94715 -7.56199 -71.495
rradius 45.4388
rwrist -20.512
rhand -20.0898 3.91437
rfingers 7.12502
rthumb 6.25316 -25.9733
lclavicle 8.14551e-015 4.47266e-016
lhumerus -58.0775 16.9308 51.541
lradius 34.3063
lwrist 9.02124
lhand -14.4141 3.94649
lfingers 7.12502
lthumb 11.7298 33.5981
rfemur 10.6677 -7.98693 19.3853
rtibia 38.837
rfoot 14.5921 -18.9546
rtoes 1.67738
lfemur -27.8809 -3.44738 -19.7173
ltibia 33.6666
lfoot -5.05894 11.6929
ltoes -6.32408
254
root 0.149413 17.8226 -20.3802 3.90224 4.60902 -1.4003
lowerback 5.07854 9.8992 2.88033
upperback -0.90404 13.3417 -1.31923
thorax -2.76845 6.59444 -3.79075
lowerneck -14.234 -10.3219 -2.91604
upperneck 14.4949 -13.2486 -0.91902
head 6.87807 -6.6089 -1.16847
rclavicle -1.64688e-013 -5.20567e-015
rhumerus -6.98131 -6.83044 -71.7404
rradius 45.7271
rwrist -20.3054
rhand -19.9964 4.01327
rfingers 7.12502
rthumb 6.34329 -25.8717
lclavicle -1.64688e-013 -5.20567e-015
lhumerus -57.5643 16.7104 52.6786
lradius 34.2618
lwrist 8.60518
lhand -14.6951 3.98843
lfingers 7.12502
lthumb 11.4588 33.6553
rfemur 9.35009 -8.17366 18.559
rtibia 41.3828
rfoot 14.353 -20.0845
rtoes 2.34207
lfemur -26.8265 -3.27509 -20.227
ltibia 33.2271
lfoot -5.37855 12.1665
ltoes -6.25955
255
root 0.189917 17.8481 -20.2249 3.79825 4.15093 -1.07537
lowerback 4.98048 9.71997 2.52687
upperback -0.934437 13.0792 -1.30206
thorax -2.84769 6.46664 -3.57356
lowerneck -14.0532 -10.3012 -2.95756
upperneck 14.5529 -13.2249 -0.892416
head 6.8712 -6.59848 -1.14391
rclavicle 3.61559e-014 -2.51897e-015
rhumerus -8.07687 -6.09802 -72.0046
rradius 46.0499
rwrist -20.1187
rhand -19.941 4.06663
rfingers 7.12502
rthumb 6.39674 -25.8168
lclavicle 3.61559e-014 -2.51897e-015
lhumerus -57.0039 16.4249 53.8533
lradius 34.2351
lwrist 8.34721
lhand -14.8547 4.05993
lfingers 7.12502
lthumb 11.3049 33.7353
rfemur 8.02172 -8.39713 17.7466
rtibia 43.8235
rfoot 13.6125 -21.5827
rtoes 3.25623
lfemur -25.781 -3.05596 -20.7392
ltibia 32.7716
lfoot -5.6979 12.5893
ltoes -6.22341
256
root 0.229273 17.8725 -20.0704 3.6848 3.68979 -0.767474
lowerback 4.8882 9.53012 2.20059
upperback -0.97244 12.8051 -1.28537
thorax -2.92963 6.33281 -3.37037
lowerneck -13.7454 -10.3484 -3.21846
upperneck 14.6396 -13.2815 -0.703895
head 6.87993 -6.62442 -1.04081
rclavicle 9.23138e-014 6.03731e-015
rhumerus -9.21528 -5.39066 -72.3016
rradius 46.3933
rwrist -19.9675
rhand -19.9118 4.06866
rfingers 7.12502
rthumb 6.425 -25.8139
lclavicle 9.23138e-014 6.03731e-015
lhumerus -56.3934 16.1061 55.0217
lradius 34.189
lwrist 8.18786
lhand -14.9105 4.1191
lfingers 7.12502
lthumb 11.2511 33.7974
rfemur 6.68191 -8.63337 16.9696
rtibia 46.1436
rfoot 12.4614 -23.2745
rtoes 4.52514
lfemur -24.7351 -2.80017 -21.2345
ltibia 32.3083
lfoot -6.01919 12.9808
ltoes -6.19826
